<?xml version="1.0" encoding="UTF-8" standalone="no"?>
<!-- Created with Inkscape (http://www.inkscape.org/) -->

<svg
   width="300"
   height="300"
   viewBox="0 0 300 300"
   version="1.1"
   id="svg1"
   xml:space="preserve"
   xmlns="http://www.w3.org/2000/svg"
   xmlns:svg="http://www.w3.org/2000/svg"><defs
     id="defs1" /><g
     id="layer1"><g
       id="g1"
       transform="translate(112.88436,111.20605)"><g
         id="layer4"
         style="display:none"><rect
           style="opacity:1;vector-effect:none;fill:#666666;fill-opacity:1;stroke:none;stroke-width:15.1181;stroke-linecap:round;stroke-linejoin:miter;stroke-miterlimit:4;stroke-dasharray:none;stroke-dashoffset:0;stroke-opacity:0.528689"
           id="rect850"
           width="174.63171"
           height="146.67442"
           x="-61.181873"
           y="-25.121035"
           rx="2.2473099" /></g><g
         id="g5378"><path
           id="path5380"
           fill="#0b8b36"
           d="m 30.801405,180.53754 6.77326,6.84714 2.309163,-2.47435 -4.129933,-30.63084 0.351303,-4.9487 2.103522,-7.38895 2.210627,-6.80021 2.4077,-5.34121 7.827161,13.08851 7.625802,13.83932 1.692256,8.12271 10.641851,-10.40083 5.376625,-40.24668 11.288759,-54.461446 7.274511,-36.970313 14.750368,-29.1291529 2.21063,-6.0493761 0.80542,-3.54089 0.29989,-5.750747 -0.90395,-4.59889 -2.10782,-4.142415 -3.86003,-3.848051 0.20137,1.049468 1.90216,1.949623 1.7565,4.091221 0.20135,3.297721 -2.40768,6.599706 -3.11032,7.090313 -6.674711,11.9409046 3.710091,-27.5805476 1.05389,-14.487785 -1.35379,-0.251703 L 93.551521,8.9792854 92.150593,11.479238 79.855055,34.507823 64.153608,65.488484 50.958386,92.369385 43.632468,111.10196 39.46398,104.01165 42.073034,98.66192 56.424983,71.230697 70.973987,47.050253 l 6.070664,-11.79159 5.016739,-9.790775 1.353798,-3.348914 0.29989,-3.250793 -0.604067,-2.499954 h -0.604068 l -0.449825,2.201324 -2.501953,5.759279 -6.070664,10.191792 -17.359423,26.578002 -9.887839,14.590178 -6.773259,11.9409 4.168488,-41.121248 1.550867,-17.538071 0.651193,-37.0684268 h -0.09853 l 0.299891,-1.2499775 0.955368,-2.2994457 0.754018,-2.098937 0.903957,-1.540073 v -3.050286 l -0.299905,-3.84805 1.353798,-2.499954 -0.604067,-3.647544 v -2.743124 l 0.501245,-1.548605 1.053909,-3.451301 0.75402,-1.851503 -1.405218,-2.299444 1.203862,-2.290914 -1.906463,-1.348097 -1.156715,-3.451301 1.65796,-2.700462 -2.309158,-0.75084 -1.002489,-1.800308 v -1.548606 l -1.053905,-1.740582 -1.049619,-0.951347 0.09853,-1.450487 v -1.599798 l -0.501247,-4.351457 -0.351302,-2.499953 -1.555149,-1.151855 -0.754014,-1.339566 -1.756505,-0.84896 -1.053905,-1.898429 0.201357,-2.150132 -0.201357,-2.201323 -1.152439,-1.898429 -2.009272,-0.401017 -1.855042,-0.648453 -0.955367,-1.348097 -0.651194,-1.450486 -1.452329,0.951348 -0.604069,1.851502 -0.29989,2.000816 -0.955368,3.148407 -0.651192,-1.053736 0.299891,3.848051 -0.201354,0.848961 v 1.441953 l 0.552655,1.151856 0.501247,1.548607 0.955367,1.249976 0.402713,0.550331 0.29989,1.450485 -1.203849,0.900154 0.501246,1.301171 -1.156723,1.450484 0.201356,1.151857 0.299891,1.151855 0.955369,1.151857 0.848263,1.040936 1.156724,0.998275 0.201356,0.848959 -0.402712,1.249977 -0.955368,0.848961 -0.445553,0.699645 0.149953,1.800308 1.45233,0.951348 0.852548,0.900153 0.501247,1.800308 -1.555151,1.851502 -0.252765,1.29264 0.651192,1.450484 0.955368,1.151856 v 1.151855 l 0.702603,0.900155 0.651192,0.750839 0.501247,0.848961 -0.299891,1.450484 0.955368,1.348099 0.852549,0.200508 0.299891,0.648451 -0.299891,1.151856 0.805421,1.650994 0.848265,0.63992 0.651192,1.348097 -0.651192,2.299445 0.955368,2.098939 0.903958,0.401016 0.449837,0.951347 0.201356,2.700463 -0.501247,1.151854 -0.449837,1.348099 1.353795,6.7916834 2.407698,1.5486061 L 43.62819,21.794748 40.817781,53.61583 39.15981,72.054063 36.45222,94.434186 35.398318,97.134656 26.465841,81.891756 23.406948,61.461249 19.439815,28.283535 14.722953,-2.488079 15.074254,25.591606 16.732224,48.820697 19.589761,70.953401 -0.32731299,39.524794 -28.928375,-3.1877255 -35.500279,-12.287385 h -0.552657 l 1.906452,5.44785 3.564423,8.8394274 5.218108,11.7915906 9.129549,19.487694 5.522283,9.790773 6.8246705,11.791597 14.0991755,22.23935 12.74538,20.183067 1.953578,18.088386 6.074941,41.32178 -0.0043,-0.0256 L 23.959562,134.95385 9.1063738,98.533869 -2.7350479,74.050539 -18.440785,48.620125 l -7.977108,-10.439227 -6.370548,-6.348005 -10.384808,-9.590266 4.314151,5.290004 6.974615,7.098845 4.112795,4.598892 2.711875,4.692745 3.260247,5.200416 5.320928,9.091131 4.614041,8.442666 4.7168631,10.447774 5.7707654,13.941707 11.2930496,29.082243 11.8414219,30.66922 7.12456,21.68902 z m -20.7739,-20.59688 -2.0649656,-5.50758 -3.8171869,-7.19269 -8.3241271,-15.84017 -11.7428864,-21.08748 -8.277,-13.540709 -7.681502,-11.693476 -4.168488,-5.742213 -3.461603,-3.451292 5.972122,11.288177 5.46659,12.640547 8.229873,18.638736 3.611548,8.24217 3.620118,10.71653 z m -49.533474,-84.051358 -0.09853,-0.2005 -0.299891,-0.200516 z m 125.984336,-37.618751 -2.000707,8.34029 -9.082423,36.172543 -4.412688,20.541416 -4.618316,24.8289 -5.115289,16.18998 -1.807913,-4.19788 -11.640068,-21.47997 3.915716,-9.04847 12.74538,-26.582286 6.824668,-14.29153 9.129553,-19.180539 z m 11.293048,26.927836 -1.657961,9.590253 -4.716866,15.938279 -4.721154,11.791591 -5.218111,15.34101 -2.759,15.08931 -2.609047,16.04065 9.433731,-9.5476 0.398423,-4.88898 1.053893,-8.49814 2.51053,-11.9921 5.466581,-21.433049 2.51053,-15.891339 z m -67.53552,43.715053 3.812905,6.348 -0.805423,14.7907 -0.604066,0.44794 z m 6.421958,10.64826 2.206345,3.6433 -1.700813,4.00163 -1.25526,0.90014 z"
           style="stroke-width:4.27515" /><path
           id="path5384"
           d="M 37.578948,-110.05435 -112.341,39.285891 37.578948,188.62613 187.5503,39.285891 Z m 0,2.64928 L 184.88985,39.285891 37.578948,185.97685 -109.72766,39.285891 Z"
           style="stroke-width:4.27515" /></g><g
         id="layer6"
         transform="matrix(4.2841614,0,0,4.2661325,-113.02219,-110.05435)"><path
           style="opacity:1;vector-effect:none;fill:#ffffff;fill-opacity:1;stroke:none;stroke-width:1.33626;stroke-linecap:round;stroke-linejoin:miter;stroke-miterlimit:4;stroke-dasharray:none;stroke-dashoffset:0;stroke-opacity:0.528689"
           d="m 30.913006,65.070383 c -1.587347,-1.596195 -2.435121,-2.513418 -2.512568,-2.718395 -0.187189,-0.495427 -2.813684,-5.480165 -4.307954,-8.175922 -2.612545,-4.713197 -5.464974,-9.184189 -6.510744,-10.20516 -0.221994,-0.216729 -0.403625,-0.370072 -0.403625,-0.34076 0,0.02931 0.292143,0.604383 0.649206,1.277937 0.357063,0.673554 0.838813,1.662166 1.070554,2.196915 0.231741,0.53475 1.167693,2.682587 2.079893,4.772971 1.497956,3.432695 2.202671,5.208264 2.105646,5.30529 -0.01923,0.01923 -5.03495,-4.965126 -11.146034,-11.076355 L 0.82631643,34.995578 17.995815,17.82625 35.165314,0.65692158 52.334686,17.826464 69.504059,34.996007 57.969358,46.530453 c -10.540329,10.540097 -11.5347,11.510522 -11.5347,11.256923 0,-0.527563 0.345567,-2.820479 0.61753,-4.097446 0.150125,-0.704897 0.548706,-2.356841 0.885736,-3.670988 0.752862,-2.935567 1.207026,-5.664027 1.253334,-7.529599 0.01716,-0.691293 0.0062,-1.228252 -0.02443,-1.193243 -0.03059,0.03501 -0.124522,0.494796 -0.208728,1.021746 -0.190536,1.19234 -1.195815,4.581758 -1.813068,6.112978 -0.254758,0.631976 -0.757048,1.99974 -1.116202,3.039475 -0.581607,1.683733 -0.695822,2.128285 -1.044609,4.065864 -0.215382,1.19649 -0.479808,2.752171 -0.587613,3.457068 l -0.19601,1.281631 -0.583851,0.59841 c -0.321119,0.329125 -0.59526,0.564184 -0.609205,0.522354 -0.01394,-0.04183 0.236629,-2.041317 0.556828,-4.443303 0.567246,-4.255237 0.618131,-4.541803 1.983964,-11.17315 0.770982,-3.743246 1.74694,-8.575879 2.168793,-10.739184 l 0.767007,-3.933282 1.7863,-3.535533 c 0.982465,-1.944544 1.897066,-3.872997 2.032447,-4.28545 0.323968,-0.987009 0.454139,-2.240182 0.312303,-3.006589 -0.14026,-0.757897 -0.589108,-1.630189 -1.088712,-2.115808 -0.453509,-0.440815 -0.674887,-0.425609 -0.260718,0.01791 0.313789,0.336023 0.609718,1.00789 0.690448,1.567569 0.048,0.332775 4.42e-4,0.549351 -0.291016,1.325825 -0.191616,0.510443 -0.48982,1.246276 -0.662679,1.635184 -0.407088,0.915896 -1.737875,3.3123 -1.738752,3.131046 -3.53e-4,-0.07663 0.177098,-1.468744 0.394375,-3.093592 0.217277,-1.624848 0.435574,-3.511116 0.485104,-4.191706 0.04953,-0.68059 0.112381,-1.466142 0.139669,-1.74567 0.04743,-0.485803 0.04065,-0.508224 -0.153646,-0.508043 -0.201194,1.77e-4 -0.212069,0.05905 -1.068407,5.783529 l -0.865144,5.783339 -1.644851,3.077403 c -2.710371,5.070921 -8.049503,15.876396 -8.835962,17.882451 -0.371642,0.947965 -0.783176,1.998218 -0.914521,2.333894 l -0.238808,0.610322 -0.458879,-0.779654 -0.458878,-0.779654 0.14196,-0.354793 c 0.441072,-1.102348 3.911881,-7.541371 5.444081,-10.099823 1.131372,-1.889156 2.270643,-3.947801 3.213611,-5.806944 l 1.460865,-2.880226 -0.0014,-0.601211 c -7.07e-4,-0.330666 -0.03607,-0.656025 -0.07851,-0.723021 -0.09678,-0.152805 -0.273694,-0.05219 -0.273694,0.155657 0,0.285993 -0.611904,1.572859 -1.293637,2.720585 -0.780467,1.313948 -4.177281,6.562851 -5.996715,9.266383 -0.68704,1.020885 -1.541962,2.38311 -1.899826,3.027165 -0.357864,0.644055 -0.663067,1.158606 -0.678226,1.143446 -0.01516,-0.01516 0.170675,-1.993893 0.412967,-4.397184 0.825899,-8.192088 0.868022,-8.80146 0.934423,-13.517815 l 0.06035,-4.286835 0.257506,-0.703655 c 0.141628,-0.38701 0.300966,-0.756021 0.354084,-0.820024 0.06272,-0.07557 0.07953,-0.402182 0.04795,-0.931533 -0.03995,-0.669656 -0.02107,-0.868469 0.105794,-1.113793 0.118036,-0.228257 0.137792,-0.384471 0.08384,-0.662909 -0.125753,-0.648934 -0.08329,-1.084336 0.186158,-1.908881 0.250323,-0.766018 0.257033,-0.823582 0.125619,-1.077708 -0.116438,-0.225167 -0.120845,-0.311885 -0.02732,-0.53767 0.10299,-0.248639 0.09403,-0.283394 -0.117238,-0.454962 -0.125809,-0.102166 -0.277789,-0.35214 -0.337733,-0.555495 -0.09812,-0.33288 -0.09015,-0.401671 0.08,-0.690062 0.103948,-0.176179 0.188996,-0.334778 0.188996,-0.352444 0,-0.01767 -0.120016,-0.05848 -0.266701,-0.0907 -0.276132,-0.06065 -0.528794,-0.411475 -0.528794,-0.734239 0,-0.09286 -0.09944,-0.315361 -0.220971,-0.494451 -0.137145,-0.202094 -0.221066,-0.449868 -0.22122,-0.65315 -1.77e-4,-0.180141 -0.04355,-0.680577 -0.09647,-1.112078 -0.09395,-0.766015 -0.105615,-0.79368 -0.493999,-1.1711455 -0.21878,-0.2126288 -0.432506,-0.3865983 -0.474947,-0.3865983 -0.158531,0 -0.294691,-0.4152663 -0.31193,-0.9513277 -0.0175,-0.54434 -0.189029,-0.9684291 -0.417422,-1.032066 -0.05788,-0.01614 -0.267879,-0.073331 -0.466612,-0.1270884 C 34.265095,7.222888 34.136743,7.1238075 34.010314,6.889042 33.918463,6.7184865 33.812583,6.5789411 33.775025,6.5789411 c -0.170531,0 -0.40859,0.3692524 -0.464097,0.7198553 -0.09428,0.5955388 -0.241373,1.046934 -0.324423,0.9956066 -0.0414,-0.025584 -0.07526,0.2707317 -0.07526,0.6584792 0,0.6994499 0.06875,0.9370157 0.497859,1.7204318 0.12397,0.226328 0.123417,0.264104 -0.006,0.407063 -0.08109,0.0896 -0.118,0.221715 -0.08557,0.306239 0.03253,0.08478 -0.0048,0.217021 -0.08693,0.307744 -0.215031,0.237607 -0.09551,0.63624 0.345762,1.153203 0.404686,0.474102 0.429223,0.664528 0.121512,0.943003 -0.265646,0.240406 -0.212613,0.575115 0.135083,0.852542 0.377784,0.301434 0.42651,0.566663 0.163863,0.891935 -0.247311,0.306279 -0.251914,0.462278 -0.02464,0.835044 0.09705,0.159169 0.176446,0.345048 0.176446,0.413063 0,0.06802 0.10387,0.247107 0.230822,0.39798 0.159033,0.188999 0.2177,0.342964 0.18863,0.495034 -0.03178,0.166245 0.0225,0.275151 0.219923,0.441274 0.165431,0.139201 0.242685,0.271196 0.209436,0.35784 -0.0611,0.159227 0.0744,0.452202 0.316524,0.684354 0.136777,0.131146 0.158193,0.234778 0.112075,0.542318 -0.05999,0.400075 0.02152,0.638683 0.320271,0.937428 0.194195,0.194196 0.231209,0.774607 0.06876,1.078153 -0.07687,0.143635 -0.07387,0.360918 0.01244,0.90017 0.1475,0.921551 0.204845,1.062672 0.50346,1.238989 l 0.248339,0.146633 -0.02533,3.463304 c -0.02454,3.355117 -0.04051,3.637252 -0.511427,9.03177 -0.618427,7.08434 -1.121181,11.502041 -1.350728,11.868842 -0.04689,0.07493 -0.415055,-0.477824 -1.089123,-1.635185 l -1.018288,-1.748376 -0.366647,-2.474874 c -0.201657,-1.36118 -0.567,-4.165301 -0.811873,-6.231378 -0.368974,-3.11315 -1.400883,-10.391952 -1.541282,-10.871767 -0.02134,-0.07292 -0.02452,1.458408 -0.0071,3.402951 0.03694,4.116455 0.238531,7.177571 0.718114,10.90425 0.171212,1.330433 0.298758,2.431504 0.283436,2.446826 -0.01532,0.01532 -0.92135,-1.391412 -2.013397,-3.126075 -2.034901,-3.232341 -8.628246,-13.202743 -9.961874,-15.064263 -0.409224,-0.571209 -0.781444,-1.038563 -0.827152,-1.038563 -0.108273,0 -0.114989,-0.03532 0.12731,0.669529 0.328503,0.955609 1.031411,2.674088 1.804966,4.412801 2.503846,5.627877 3.827611,8.061415 7.901575,14.525824 1.368219,2.171037 2.790067,4.42742 3.159663,5.014185 l 0.671993,1.066844 0.205008,1.982554 c 0.112753,1.090404 0.500623,4.008018 0.861931,6.483585 0.361309,2.475566 0.64489,4.537136 0.63018,4.581264 -0.01471,0.04413 -0.338054,-0.887529 -0.718542,-2.070351 -0.968137,-3.009639 -3.741078,-9.815993 -5.467413,-13.420099 -1.154364,-2.40999 -1.590095,-3.203551 -3.241672,-5.903803 -2.578412,-4.215584 -3.439042,-5.335417 -5.796634,-7.542461 -0.971997,-0.909927 -1.782472,-1.639208 -1.801057,-1.620623 -0.05975,0.05975 0.706209,0.933162 2.047846,2.33514 1.287914,1.345839 1.32701,1.398557 2.552036,3.441251 3.041283,5.071243 3.269359,5.590872 8.90782,20.294845 1.837769,4.792529 3.546912,9.878291 3.433791,10.217654 -0.01476,0.04427 -1.104888,-1.003573 -2.422512,-2.328541 z"
           id="path861" /><path
           style="opacity:1;vector-effect:none;fill:#ffffff;fill-opacity:1;stroke:none;stroke-width:1.33626;stroke-linecap:round;stroke-linejoin:miter;stroke-miterlimit:4;stroke-dasharray:none;stroke-dashoffset:0;stroke-opacity:0.528689"
           d="m 40.473753,59.099002 c -0.09334,-0.228321 -0.779066,-1.544716 -1.523824,-2.925319 -0.744758,-1.380604 -1.354106,-2.537224 -1.354106,-2.570266 0,-0.412931 8.731389,-18.664793 8.812509,-18.421433 0.01472,0.04415 -0.546337,2.386914 -1.246785,5.206147 -1.423381,5.728964 -2.013417,8.390232 -2.790341,12.585409 -0.427034,2.305868 -0.635765,3.200711 -1.072107,4.596194 -0.298008,0.953071 -0.567437,1.780453 -0.59873,1.838627 -0.03264,0.06067 -0.129265,-0.07124 -0.226616,-0.309359 z"
           id="path863" /><path
           style="opacity:1;vector-effect:none;fill:#ffffff;fill-opacity:1;stroke:none;stroke-width:1.33626;stroke-linecap:round;stroke-linejoin:miter;stroke-miterlimit:4;stroke-dasharray:none;stroke-dashoffset:0;stroke-opacity:0.528689"
           d="m 35.653031,68.759518 c 9.64e-4,-0.04827 -0.204206,-1.619091 -0.455932,-3.490714 -0.531003,-3.948079 -0.529701,-4.026209 0.101641,-6.098796 0.36508,-1.198496 0.903064,-2.618812 1.046141,-2.761889 0.08214,-0.08214 1.392627,2.08915 2.758735,4.570803 0.715399,1.299584 0.85062,1.614001 1.014005,2.357767 l 0.188526,0.858211 -2.327434,2.326191 c -1.280088,1.279404 -2.326645,2.286696 -2.325682,2.238427 z"
           id="path865" /><path
           style="opacity:1;vector-effect:none;fill:#ffffff;fill-opacity:1;stroke:none;stroke-width:0.23622;stroke-linecap:round;stroke-linejoin:miter;stroke-miterlimit:4;stroke-dasharray:none;stroke-dashoffset:0;stroke-opacity:0.528689"
           d="m 34.002118,56.365054 c 0,-0.0072 -0.123188,-1.120365 -0.27375,-2.473627 -0.150562,-1.353262 -0.271852,-2.473354 -0.269531,-2.489093 0.0024,-0.01625 0.190387,0.284147 0.435127,0.695312 l 0.430909,0.723929 -0.09013,1.632813 c -0.04957,0.898047 -0.09055,1.675566 -0.09107,1.72782 -9.28e-4,0.09434 -0.0014,0.09536 -0.07125,0.145502 -0.03867,0.02777 -0.07031,0.04458 -0.07031,0.03734 z"
           id="path867" /><path
           style="opacity:1;vector-effect:none;fill:#ffffff;fill-opacity:1;stroke:none;stroke-width:0.23622;stroke-linecap:round;stroke-linejoin:miter;stroke-miterlimit:4;stroke-dasharray:none;stroke-dashoffset:0;stroke-opacity:0.528689"
           d="m 34.773844,55.741867 c 0.0053,-0.0421 0.04505,-0.484026 0.0883,-0.982062 0.04324,-0.498036 0.08039,-0.907288 0.08255,-0.909448 0.0065,-0.0065 0.494927,0.814403 0.494927,0.831824 0,0.03928 -0.392055,0.934393 -0.417224,0.952571 -0.01545,0.01116 -0.07987,0.05705 -0.143156,0.101972 l -0.115067,0.08169 z"
           id="path869" /></g><g
         id="layer5"
         style="display:none"><rect
           style="opacity:1;vector-effect:none;fill:#ffffff;fill-opacity:1;stroke:none;stroke-width:15.1181;stroke-linecap:round;stroke-linejoin:miter;stroke-miterlimit:4;stroke-dasharray:none;stroke-dashoffset:0;stroke-opacity:0.528689"
           id="rect854"
           width="49.954315"
           height="49.053471"
           x="23.929935"
           y="-16.205101"
           rx="0"
           ry="0"
           transform="rotate(35.22343)" /></g></g></g></svg>
